<svg height="56" viewBox="0 0 272 56" width="272" xmlns="http://www.w3.org/2000/svg"><g fill="none" fill-rule="evenodd"><g fill="#232121" transform="translate(64 12)"><path d="m204.704 3.383v28.074h-2.774v-28.074h-3.007v-2.729h8.556v2.729z"/><path d="m188.471 31.828c-2.498 0-4.486-2.128-4.486-5.274v-20.996c0-3.1 1.988-5.273 4.486-5.273s4.301 2.173 4.301 5.273v5.873h-2.404v-6.43c0-1.016-.649-1.895-1.758-1.895-1.156 0-1.805.879-1.805 1.895v22.109c0 1.062.649 1.895 1.805 1.895 1.109 0 1.758-.833 1.758-1.895v-6.476h2.404v5.92c0 3.146-1.803 5.274-4.301 5.274"/><path d="m169.971 31.457v-30.803h7.493v2.636h-4.717v11.008h3.422v2.636h-3.422v11.887h4.717v2.636z"/><path d="m159.01 3.29v11.147h3.516v2.59h-3.516v14.43h-2.82v-30.803h7.213v2.636z"/><path d="m145.227 3.29v11.147h3.516v2.59h-3.516v14.43h-2.82v-30.803h7.215v2.636z"/><path d="m128.163 31.457v-30.803h7.492v2.636h-4.717v11.008h3.422v2.636h-3.422v11.887h4.717v2.636z"/><path d="m109.479 6.205c0-1.989-.418-2.729-1.572-2.729h-1.805v25.159h1.805c1.154 0 1.572-.74 1.572-2.681zm-1.572 25.252h-4.627v-30.803h4.627c3.098 0 4.348 1.943 4.348 6.059v18.685c0 4.116-1.25 6.059-4.348 6.059z"/><path d="m93.985 31.457-4.07-15.91-.924-4.672v20.582h-2.637v-30.803h2.729l3.515 16.096.832 4.763v-20.859h2.637v30.803z"/><path d="m75.346 8.194-1.433 14.291h2.545zm1.805 23.263-.463-6.244h-3.053l-.648 6.244h-2.542l3.468-30.803h2.914l3.238 30.803z"/><path d="m48.291 31.457v-30.803h7.493v2.636h-4.717v11.008h3.422v2.636h-3.422v11.887h4.717v2.636z"/><path d="m38.44 6.205c0-1.989-.415-2.729-1.572-2.729h-1.804v25.159h1.804c1.157 0 1.572-.74 1.572-2.681zm-1.572 25.252h-4.625v-30.803h4.625c3.099 0 4.348 1.943 4.348 6.059v18.685c0 4.116-1.249 6.059-4.348 6.059z"/><path d="m22.346 5.001c0-1.016-.694-1.895-1.803-1.895-1.157 0-1.804.879-1.804 1.895v22.109c0 1.062.647 1.895 1.804 1.895 1.109 0 1.803-.833 1.803-1.895zm-1.803 26.827c-2.498 0-4.579-2.128-4.579-5.274v-20.996c0-3.1 2.081-5.273 4.579-5.273 2.497 0 4.578 2.173 4.578 5.273v20.996c0 3.146-2.081 5.274-4.578 5.274z"/><path d="m4.91 31.828c-2.497 0-4.486-2.128-4.486-5.274v-20.996c0-3.1 1.989-5.273 4.486-5.273s4.302 2.173 4.302 5.273v5.873h-2.405v-6.43c0-1.016-.648-1.895-1.757-1.895-1.157 0-1.804.879-1.804 1.895v22.109c0 1.062.647 1.895 1.804 1.895 1.109 0 1.757-.833 1.757-1.895v-6.476h2.405v5.92c0 3.146-1.805 5.274-4.302 5.274"/></g><g fill="#fff"><path d="m11.7368553 17.5887272 13.0916447-4.9599641 13.0916447 4.9599641v8.31373h-13.0916447v3.3216821h13.0916447v8.31373l-13.0916447 4.9609667-13.0916447-4.9609667zm-3.3533553 22.2371223 16.445 6.2292817 16.445-6.2292817v-24.5240999l-16.445-6.23028435-16.445 6.23028435z"/><path d="m46.182 43.6200702-21.353 8.0207719-21.353-8.0207719v-32.1135439l21.353-8.02077191 21.353 8.02077191zm-21.353-43.6200702-24.667 9.26554386-.001 36.59452634 24.668 9.2665263 24.667-9.2665263v-36.59452634z"/></g></g></svg>