<?xml version="1.0" standalone="no"?>
<!DOCTYPE svg PUBLIC "-//W3C//DTD SVG 20010904//EN"
 "http://www.w3.org/TR/2001/REC-SVG-20010904/DTD/svg10.dtd">
<svg version="1.0" xmlns="http://www.w3.org/2000/svg"
 width="700.000000pt" height="700.000000pt" viewBox="0 0 700.000000 700.000000"
 preserveAspectRatio="xMidYMid meet">
<metadata>
Created by potrace 1.11, written by Peter Selinger 2001-2013
</metadata>
<g transform="translate(0.000000,700.000000) scale(0.100000,-0.100000)"
fill="#000000" stroke="none">
<path d="M0 3500 l0 -3500 3500 0 3500 0 0 3500 0 3500 -3500 0 -3500 0 0
-3500z m4557 2038 l1073 -403 0 -1597 0 -1597 -52 -19 c-29 -11 -515 -193
-1081 -406 l-1027 -385 -1073 403 -1072 403 -3 1601 -2 1600 42 16 c682 260
2088 784 2103 785 11 1 503 -180 1092 -401z"/>
<path d="M2532 5298 l-932 -351 2 -1410 3 -1409 934 -350 933 -350 932 350
931 350 3 1410 2 1409 -927 348 c-511 192 -932 350 -938 351 -5 2 -430 -155
-943 -348z m1645 -414 l713 -269 0 -1070 0 -1070 -78 -29 c-42 -16 -187 -70
-322 -122 -135 -51 -423 -160 -642 -243 l-396 -150 -716 271 -716 271 0 1072
0 1072 713 271 c391 148 717 269 722 268 6 -2 331 -124 722 -272z"/>
<path d="M2930 4659 c-272 -103 -525 -200 -563 -215 l-67 -26 2 -875 3 -875
565 -214 c311 -118 572 -214 581 -214 9 0 270 96 580 214 l564 213 3 367 2
366 -570 0 -570 0 0 145 0 145 570 0 570 0 -2 366 -3 366 -565 214 c-310 118
-573 214 -585 213 -11 -1 -243 -86 -515 -190z"/>
</g>
</svg>
