<?xml version="1.0" standalone="no"?>
<!DOCTYPE svg PUBLIC "-//W3C//DTD SVG 20010904//EN"
 "http://www.w3.org/TR/2001/REC-SVG-20010904/DTD/svg10.dtd">
<svg version="1.0" xmlns="http://www.w3.org/2000/svg"
 width="700.000000pt" height="700.000000pt" viewBox="0 0 700.000000 700.000000"
 preserveAspectRatio="xMidYMid meet">
<metadata>
Created by potrace 1.11, written by Peter Selinger 2001-2013
</metadata>
<g transform="translate(0.000000,700.000000) scale(0.100000,-0.100000)"
fill="#000000" stroke="none">
<path d="M3148 6650 c-172 -65 -549 -206 -838 -315 -289 -109 -552 -208 -585
-220 -84 -31 -201 -75 -585 -219 -472 -178 -526 -198 -541 -206 -14 -8 -15
-218 -15 -2141 l1 -2132 90 -34 c50 -19 556 -210 1126 -424 570 -213 1047
-393 1060 -398 13 -5 78 -30 144 -55 66 -24 193 -72 282 -105 89 -34 168 -61
175 -61 7 0 54 15 103 34 50 19 218 82 375 141 157 58 294 110 305 115 11 5
38 16 60 23 63 22 163 60 740 277 297 112 709 267 915 344 l375 141 3 2136 2
2136 -157 58 c-87 32 -171 64 -188 71 -16 7 -129 49 -250 94 -121 44 -230 85
-243 91 -18 7 -1425 536 -1954 734 l-87 33 -313 -118z m709 -439 c1076 -403
2088 -783 2091 -786 8 -7 3 -3738 -5 -3746 -4 -4 -89 -38 -188 -74 -99 -37
-189 -71 -200 -75 -18 -9 -941 -355 -1745 -656 -168 -63 -313 -119 -322 -124
-20 -12 4 -19 -353 115 -143 54 -287 108 -320 120 -33 12 -152 57 -265 100
-113 42 -257 97 -320 120 -174 65 -393 146 -410 152 -8 4 -202 77 -430 163
l-415 157 -3 1874 -2 1874 277 104 c153 58 312 117 353 132 41 15 107 40 145
55 73 27 89 33 345 128 85 32 174 66 197 77 24 10 46 19 50 19 4 0 113 40 242
89 271 103 875 330 878 331 1 0 181 -67 400 -149z"/>
<path d="M3450 5702 c-21 -6 -277 -101 -304 -112 -11 -5 -136 -52 -276 -105
-140 -53 -307 -116 -370 -140 -63 -24 -295 -112 -515 -195 -220 -83 -409 -155
-421 -161 l-21 -11 0 -1424 c0 -1029 3 -1426 11 -1433 9 -8 214 -86 981 -376
77 -29 178 -67 225 -85 47 -17 94 -35 105 -40 11 -5 150 -58 309 -118 l289
-109 176 68 c97 37 262 100 366 139 190 72 297 113 410 156 33 12 229 86 435
164 206 78 410 155 453 172 l77 29 -2 1431 -3 1430 -85 34 c-47 18 -310 118
-585 222 -275 104 -621 236 -770 292 -329 125 -390 148 -435 164 -19 7 -42 11
-50 8z m126 -452 c60 -22 118 -45 129 -49 11 -5 83 -33 160 -61 77 -29 235
-88 350 -132 116 -44 246 -93 290 -110 44 -16 107 -40 140 -53 33 -13 85 -32
115 -44 30 -11 93 -36 140 -53 l85 -33 3 -479 c1 -282 -2 -482 -7 -485 -5 -3
-349 -6 -765 -6 l-756 0 0 -192 0 -193 23 -1 c12 0 355 -1 762 -2 l740 -2 0
-484 0 -483 -65 -25 c-36 -14 -74 -29 -85 -34 -17 -7 -246 -94 -540 -203 -38
-15 -79 -31 -90 -36 -11 -5 -128 -49 -260 -99 -132 -49 -295 -110 -362 -136
l-121 -46 -454 172 c-249 95 -475 180 -503 190 -27 11 -167 63 -310 118 l-260
98 -1 1163 0 1162 25 10 c14 6 40 16 56 23 17 7 46 18 65 25 19 7 49 18 65 25
17 7 230 88 475 180 245 91 452 169 460 172 8 4 94 37 190 74 96 37 180 68
186 68 6 1 60 -17 120 -39z"/>
</g>
</svg>
